<svg width="24" height="25" viewBox="0 0 24 25" fill="none" xmlns="http://www.w3.org/2000/svg">
<path d="M21.8055 10.2415H21V10.2H12V14.2H17.6515C16.827 16.5285 14.6115 18.2 12 18.2C8.6865 18.2 6 15.5135 6 12.2C6 8.88651 8.6865 6.20001 12 6.20001C13.5295 6.20001 14.921 6.77701 15.9805 7.71951L18.809 4.89101C17.023 3.22651 14.634 2.20001 12 2.20001C6.4775 2.20001 2 6.67751 2 12.2C2 17.7225 6.4775 22.2 12 22.2C17.5225 22.2 22 17.7225 22 12.2C22 11.5295 21.931 10.875 21.8055 10.2415Z" fill="#FFC107"/>
<path d="M3.15308 7.54551L6.43858 9.95501C7.32758 7.75401 9.48058 6.20001 12.0001 6.20001C13.5296 6.20001 14.9211 6.77701 15.9806 7.71951L18.8091 4.89101C17.0231 3.22651 14.6341 2.20001 12.0001 2.20001C8.15908 2.20001 4.82808 4.36851 3.15308 7.54551Z" fill="#FF3D00"/>
<path d="M11.9999 22.2C14.5829 22.2 16.9299 21.2115 18.7044 19.604L15.6094 16.985C14.5717 17.7742 13.3036 18.201 11.9999 18.2C9.39891 18.2 7.19041 16.5415 6.35841 14.227L3.09741 16.7395C4.75241 19.978 8.11341 22.2 11.9999 22.2Z" fill="#4CAF50"/>
<path d="M21.8055 10.2415H21V10.2H12V14.2H17.6515C17.2571 15.3082 16.5467 16.2766 15.608 16.9855L15.6095 16.9845L18.7045 19.6035C18.4855 19.8025 22 17.2 22 12.2C22 11.5295 21.931 10.875 21.8055 10.2415Z" fill="#1976D2"/>
</svg>
