<svg width="20" height="20" viewBox="0 0 20 20" fill="none" xmlns="http://www.w3.org/2000/svg">
<path d="M6.987 2.06599L6.27 2.28199C5.63158 2.47452 5.06144 2.84541 4.62669 3.35103C4.19194 3.85664 3.91068 4.47592 3.816 5.13599C3.519 7.20399 4.183 9.62199 5.784 12.395C7.381 15.161 9.139 16.943 11.074 17.723C11.6957 17.9736 12.3763 18.0403 13.0349 17.9154C13.6935 17.7904 14.3023 17.4789 14.789 17.018L15.331 16.504C15.6829 16.1709 15.902 15.7214 15.9474 15.2389C15.9929 14.7565 15.8616 14.2739 15.578 13.881L14.222 12.001C14.0387 11.7472 13.7805 11.5571 13.4837 11.4574C13.1869 11.3577 12.8664 11.3533 12.567 11.445L10.516 12.072L10.463 12.082C10.237 12.115 9.715 11.626 9.065 10.5C8.385 9.32199 8.245 8.63299 8.432 8.45499L9.475 7.48199C9.85641 7.12645 10.117 6.66043 10.2201 6.14931C10.3232 5.63818 10.2637 5.1076 10.05 4.63199L9.388 3.16099C9.18894 2.71833 8.8357 2.36317 8.39413 2.1617C7.95256 1.96023 7.4518 1.92622 6.987 2.06599ZM8.478 3.57099L9.138 5.04199C9.26654 5.32722 9.30248 5.64555 9.24078 5.95227C9.17908 6.25898 9.02283 6.53865 8.794 6.75199L7.748 7.72599C7.078 8.35999 7.3 9.44199 8.2 11C9.046 12.466 9.818 13.19 10.648 13.064L10.772 13.038L12.86 12.401C12.9598 12.3703 13.0667 12.3717 13.1657 12.4049C13.2647 12.438 13.3508 12.5014 13.412 12.586L14.768 14.466C14.91 14.6624 14.9758 14.9038 14.9532 15.1451C14.9305 15.3864 14.821 15.6114 14.645 15.778L14.102 16.292C13.7543 16.621 13.3195 16.8433 12.8493 16.9325C12.379 17.0216 11.893 16.9739 11.449 16.795C9.751 16.111 8.146 14.484 6.651 11.895C5.152 9.29999 4.545 7.09299 4.806 5.27799C4.87356 4.80642 5.07445 4.36397 5.38502 4.00273C5.69559 3.6415 6.1029 3.37652 6.559 3.23899L7.276 3.02299C7.50846 2.95314 7.75839 2.97022 7.97918 3.07105C8.19997 3.17188 8.37656 3.34957 8.476 3.57099" fill="#FAFAFA"/>
</svg>
