<svg width="24" height="24" viewBox="0 0 24 24" fill="none" xmlns="http://www.w3.org/2000/svg">
<path d="M4.5 4.875H22.5L20.25 14.625H6.75M20.25 17.625H7.5L3.75 1.875H1.5" stroke="#696969" stroke-width="2" stroke-linecap="round" stroke-linejoin="round"/>
<path d="M18.75 22.125C19.5784 22.125 20.25 21.4534 20.25 20.625C20.25 19.7966 19.5784 19.125 18.75 19.125C17.9216 19.125 17.25 19.7966 17.25 20.625C17.25 21.4534 17.9216 22.125 18.75 22.125Z" stroke="#696969" stroke-width="2" stroke-linecap="round" stroke-linejoin="round"/>
<path d="M9 22.125C9.82843 22.125 10.5 21.4534 10.5 20.625C10.5 19.7966 9.82843 19.125 9 19.125C8.17157 19.125 7.5 19.7966 7.5 20.625C7.5 21.4534 8.17157 22.125 9 22.125Z" stroke="#696969" stroke-width="2" stroke-linecap="round" stroke-linejoin="round"/>
</svg>
