<svg width="18" height="18" viewBox="0 0 18 18" fill="none" xmlns="http://www.w3.org/2000/svg">
<path d="M8.95829 14C9.24996 14 9.49649 13.8993 9.69788 13.6979C9.89927 13.4965 9.99996 13.25 9.99996 12.9583C9.99996 12.6667 9.89927 12.4201 9.69788 12.2188C9.49649 12.0174 9.24996 11.9167 8.95829 11.9167C8.66663 11.9167 8.4201 12.0174 8.21871 12.2188C8.01732 12.4201 7.91663 12.6667 7.91663 12.9583C7.91663 13.25 8.01732 13.4965 8.21871 13.6979C8.4201 13.8993 8.66663 14 8.95829 14ZM8.20829 10.7917H9.74996C9.74996 10.3333 9.80204 9.97222 9.90621 9.70833C10.0104 9.44445 10.3055 9.08333 10.7916 8.625C11.1527 8.26389 11.4375 7.92014 11.6458 7.59375C11.8541 7.26736 11.9583 6.875 11.9583 6.41667C11.9583 5.63889 11.6736 5.04167 11.1041 4.625C10.5347 4.20833 9.86107 4 9.08329 4C8.29163 4 7.64926 4.20833 7.15621 4.625C6.66315 5.04167 6.3194 5.54167 6.12496 6.125L7.49996 6.66667C7.5694 6.41667 7.72565 6.14583 7.96871 5.85417C8.21176 5.5625 8.58329 5.41667 9.08329 5.41667C9.52774 5.41667 9.86107 5.5382 10.0833 5.78125C10.3055 6.02431 10.4166 6.29167 10.4166 6.58333C10.4166 6.86111 10.3333 7.12153 10.1666 7.36458C9.99996 7.60764 9.79163 7.83333 9.54163 8.04167C8.93052 8.58333 8.55551 8.99306 8.41663 9.27083C8.27774 9.54861 8.20829 10.0556 8.20829 10.7917ZM8.99996 17.3333C7.84718 17.3333 6.76385 17.1146 5.74996 16.6771C4.73607 16.2396 3.85413 15.6458 3.10413 14.8958C2.35413 14.1458 1.76038 13.2639 1.32288 12.25C0.885376 11.2361 0.666626 10.1528 0.666626 9C0.666626 7.84722 0.885376 6.76389 1.32288 5.75C1.76038 4.73611 2.35413 3.85417 3.10413 3.10417C3.85413 2.35417 4.73607 1.76042 5.74996 1.32292C6.76385 0.885418 7.84718 0.666668 8.99996 0.666668C10.1527 0.666668 11.2361 0.885418 12.25 1.32292C13.2638 1.76042 14.1458 2.35417 14.8958 3.10417C15.6458 3.85417 16.2395 4.73611 16.677 5.75C17.1145 6.76389 17.3333 7.84722 17.3333 9C17.3333 10.1528 17.1145 11.2361 16.677 12.25C16.2395 13.2639 15.6458 14.1458 14.8958 14.8958C14.1458 15.6458 13.2638 16.2396 12.25 16.6771C11.2361 17.1146 10.1527 17.3333 8.99996 17.3333ZM8.99996 15.6667C10.8611 15.6667 12.4375 15.0208 13.7291 13.7292C15.0208 12.4375 15.6666 10.8611 15.6666 9C15.6666 7.13889 15.0208 5.5625 13.7291 4.27083C12.4375 2.97917 10.8611 2.33333 8.99996 2.33333C7.13885 2.33333 5.56246 2.97917 4.27079 4.27083C2.97913 5.5625 2.33329 7.13889 2.33329 9C2.33329 10.8611 2.97913 12.4375 4.27079 13.7292C5.56246 15.0208 7.13885 15.6667 8.99996 15.6667Z" fill="#1C1B1F"/>
</svg>
