<svg width="118" height="36" viewBox="0 0 118 36" fill="none" xmlns="http://www.w3.org/2000/svg">
<mask id="mask0_56_2018" style="mask-type:alpha" maskUnits="userSpaceOnUse" x="0" y="0" width="20" height="20">
<rect width="20" height="20" fill="#D9D9D9"/>
</mask>
<g mask="url(#mask0_56_2018)">
<path d="M6.66667 16.6667H1.66667C1.13889 16.6667 0.729167 16.493 0.4375 16.1458C0.145833 15.7986 0 15.4167 0 15C0 14.7222 0.0694444 14.4514 0.208333 14.1875C0.347222 13.9236 0.569444 13.7083 0.875 13.5417L3.79167 11.9583L0 10.8333L1.66667 7.49999L9.16667 8.33332L11.7083 6.43749L11.0417 5.83332H9.16667V4.16666H11.7083L17.6458 9.68749C17.9097 9.9236 18.0903 10.1562 18.1875 10.3854C18.2847 10.6146 18.3333 10.8333 18.3333 11.0417C18.3333 11.6389 18.1042 12.1701 17.6458 12.6354C17.1875 13.1007 16.4931 13.3333 15.5625 13.3333L17.3542 15H17.5C17.7361 15 17.934 14.9201 18.0938 14.7604C18.2535 14.6007 18.3333 14.4028 18.3333 14.1667H20C20 14.8611 19.7569 15.4514 19.2708 15.9375C18.7847 16.4236 18.1944 16.6667 17.5 16.6667H12.5V15H14.9375L13.2708 13.3333H10C10 14.25 9.67361 15.0347 9.02083 15.6875C8.36806 16.3403 7.58333 16.6667 6.66667 16.6667ZM1.66667 15H6.66667C7.125 15 7.51736 14.8368 7.84375 14.5104C8.17014 14.184 8.33333 13.7917 8.33333 13.3333L6.04167 12.6458L1.66667 15ZM8.58333 11.6667H15.4792C15.8542 11.6667 16.1458 11.6215 16.3542 11.5312C16.5625 11.441 16.6667 11.2778 16.6667 11.0417L12.9375 7.58332L9.64583 10.0625L2.625 9.29166L2.375 9.79166L8.58333 11.6667Z" fill="#840032"/>
</g>
<path d="M11.79 20.12L6.354 26.294L6.156 26.096L3.186 29.462L2.808 27.158L8.91 20.12H11.79ZM4.032 20.12V32H1.548V20.12H4.032ZM7.038 24.224L11.934 32H9.09L5.13 25.61L7.038 24.224ZM15.2548 21.704C14.7388 21.704 14.3548 21.596 14.1028 21.38C13.8508 21.152 13.7248 20.822 13.7248 20.39C13.7248 19.946 13.8508 19.616 14.1028 19.4C14.3548 19.172 14.7388 19.058 15.2548 19.058C15.7708 19.058 16.1548 19.172 16.4068 19.4C16.6588 19.616 16.7848 19.946 16.7848 20.39C16.7848 20.822 16.6588 21.152 16.4068 21.38C16.1548 21.596 15.7708 21.704 15.2548 21.704ZM16.4788 23V32H14.0128V23H16.4788ZM22.9949 32.18C22.2509 32.18 21.5849 31.994 20.9969 31.622C20.4209 31.25 19.9649 30.716 19.6289 30.02C19.3049 29.324 19.1429 28.49 19.1429 27.518C19.1429 26.522 19.3169 25.676 19.6649 24.98C20.0129 24.272 20.4809 23.738 21.0689 23.378C21.6689 23.006 22.3409 22.82 23.0849 22.82C23.8769 22.82 24.5309 23.048 25.0469 23.504C25.5629 23.96 25.8989 24.548 26.0549 25.268L25.8209 25.556V19.058H28.2869V32H26.0729L25.9109 29.264L26.2169 29.408C26.1329 29.972 25.9409 30.464 25.6409 30.884C25.3409 31.292 24.9629 31.61 24.5069 31.838C24.0509 32.066 23.5469 32.18 22.9949 32.18ZM23.7149 30.29C24.1469 30.29 24.5189 30.182 24.8309 29.966C25.1429 29.738 25.3829 29.408 25.5509 28.976C25.7309 28.544 25.8209 28.028 25.8209 27.428C25.8209 26.852 25.7369 26.366 25.5689 25.97C25.4009 25.562 25.1609 25.25 24.8489 25.034C24.5369 24.818 24.1709 24.71 23.7509 24.71C23.0789 24.71 22.5509 24.95 22.1669 25.43C21.7949 25.898 21.6089 26.588 21.6089 27.5C21.6089 28.412 21.7949 29.108 22.1669 29.588C22.5389 30.056 23.0549 30.29 23.7149 30.29ZM34.78 32.18C34.036 32.18 33.37 31.994 32.782 31.622C32.206 31.25 31.75 30.716 31.414 30.02C31.09 29.324 30.928 28.49 30.928 27.518C30.928 26.522 31.102 25.676 31.45 24.98C31.798 24.272 32.266 23.738 32.854 23.378C33.454 23.006 34.126 22.82 34.87 22.82C35.662 22.82 36.316 23.048 36.832 23.504C37.348 23.96 37.684 24.548 37.84 25.268L37.606 25.556V19.058H40.072V32H37.858L37.696 29.264L38.002 29.408C37.918 29.972 37.726 30.464 37.426 30.884C37.126 31.292 36.748 31.61 36.292 31.838C35.836 32.066 35.332 32.18 34.78 32.18ZM35.5 30.29C35.932 30.29 36.304 30.182 36.616 29.966C36.928 29.738 37.168 29.408 37.336 28.976C37.516 28.544 37.606 28.028 37.606 27.428C37.606 26.852 37.522 26.366 37.354 25.97C37.186 25.562 36.946 25.25 36.634 25.034C36.322 24.818 35.956 24.71 35.536 24.71C34.864 24.71 34.336 24.95 33.952 25.43C33.58 25.898 33.394 26.588 33.394 27.5C33.394 28.412 33.58 29.108 33.952 29.588C34.324 30.056 34.84 30.29 35.5 30.29ZM44.4052 21.704C43.8892 21.704 43.5052 21.596 43.2532 21.38C43.0012 21.152 42.8752 20.822 42.8752 20.39C42.8752 19.946 43.0012 19.616 43.2532 19.4C43.5052 19.172 43.8892 19.058 44.4052 19.058C44.9212 19.058 45.3052 19.172 45.5572 19.4C45.8092 19.616 45.9352 19.946 45.9352 20.39C45.9352 20.822 45.8092 21.152 45.5572 21.38C45.3052 21.596 44.9212 21.704 44.4052 21.704ZM45.6292 23V32H43.1632V23H45.6292ZM52.9193 32.18C51.9713 32.18 51.1433 31.994 50.4353 31.622C49.7393 31.25 49.1993 30.716 48.8153 30.02C48.4313 29.324 48.2393 28.484 48.2393 27.5C48.2393 26.516 48.4313 25.676 48.8153 24.98C49.1993 24.284 49.7333 23.75 50.4173 23.378C51.1133 23.006 51.9053 22.82 52.7933 22.82C53.7053 22.82 54.4793 23.006 55.1153 23.378C55.7513 23.738 56.2373 24.236 56.5733 24.872C56.9093 25.496 57.0773 26.21 57.0773 27.014C57.0773 27.254 57.0713 27.482 57.0593 27.698C57.0473 27.914 57.0293 28.106 57.0053 28.274H49.8233V26.564H55.9253L54.7373 26.996C54.7373 26.24 54.5633 25.658 54.2153 25.25C53.8793 24.842 53.3993 24.638 52.7753 24.638C52.3193 24.638 51.9233 24.746 51.5873 24.962C51.2633 25.178 51.0173 25.502 50.8493 25.934C50.6813 26.354 50.5973 26.888 50.5973 27.536C50.5973 28.172 50.6873 28.7 50.8673 29.12C51.0593 29.528 51.3233 29.834 51.6593 30.038C52.0073 30.242 52.4213 30.344 52.9013 30.344C53.4293 30.344 53.8553 30.242 54.1793 30.038C54.5033 29.834 54.7553 29.552 54.9353 29.192L56.8973 29.948C56.7053 30.416 56.4113 30.818 56.0153 31.154C55.6313 31.49 55.1693 31.748 54.6293 31.928C54.1013 32.096 53.5313 32.18 52.9193 32.18ZM63.2671 32.18C62.3551 32.18 61.5211 32.018 60.7651 31.694C60.0211 31.37 59.4151 30.914 58.9471 30.326L60.3691 28.886C60.6571 29.318 61.0411 29.672 61.5211 29.948C62.0011 30.224 62.5711 30.362 63.2311 30.362C63.6991 30.362 64.0711 30.296 64.3471 30.164C64.6351 30.02 64.7791 29.798 64.7791 29.498C64.7791 29.306 64.7131 29.144 64.5811 29.012C64.4491 28.868 64.1851 28.754 63.7891 28.67L62.2051 28.346C61.1611 28.13 60.4171 27.806 59.9731 27.374C59.5411 26.93 59.3251 26.36 59.3251 25.664C59.3251 25.172 59.4691 24.71 59.7571 24.278C60.0571 23.846 60.5011 23.498 61.0891 23.234C61.6771 22.958 62.4091 22.82 63.2851 22.82C64.1851 22.82 64.9651 22.964 65.6251 23.252C66.2971 23.528 66.8251 23.942 67.2091 24.494L65.7331 25.934C65.4691 25.514 65.1211 25.196 64.6891 24.98C64.2691 24.752 63.8251 24.638 63.3571 24.638C63.0211 24.638 62.7331 24.674 62.4931 24.746C62.2531 24.818 62.0731 24.92 61.9531 25.052C61.8331 25.172 61.7731 25.328 61.7731 25.52C61.7731 25.712 61.8571 25.88 62.0251 26.024C62.1931 26.156 62.4991 26.27 62.9431 26.366L64.7791 26.744C65.6671 26.924 66.3031 27.23 66.6871 27.662C67.0711 28.082 67.2631 28.592 67.2631 29.192C67.2631 29.768 67.1071 30.284 66.7951 30.74C66.4951 31.184 66.0451 31.538 65.4451 31.802C64.8571 32.054 64.1311 32.18 63.2671 32.18ZM85.7878 32H83.2138L82.2238 29.102H77.6698L76.6798 32H74.1418L78.4798 20.12H81.4498L85.7878 32ZM78.2278 27.266H81.6658L79.9378 22.082L78.2278 27.266ZM90.8421 32.18C90.2421 32.18 89.7021 32.072 89.2221 31.856C88.7421 31.64 88.3581 31.298 88.0701 30.83C87.7941 30.35 87.6561 29.732 87.6561 28.976V23H90.1221V28.382C90.1221 29.078 90.2661 29.564 90.5541 29.84C90.8421 30.104 91.2561 30.236 91.7961 30.236C92.0481 30.236 92.2941 30.194 92.5341 30.11C92.7741 30.014 92.9841 29.87 93.1641 29.678C93.3561 29.486 93.5061 29.24 93.6141 28.94C93.7221 28.628 93.7761 28.262 93.7761 27.842V23H96.2421V32H94.0461L93.9561 30.434C93.6561 31.034 93.2421 31.478 92.7141 31.766C92.1981 32.042 91.5741 32.18 90.8421 32.18ZM102.523 20.246V29.066C102.523 29.498 102.631 29.816 102.847 30.02C103.075 30.212 103.381 30.308 103.765 30.308C104.065 30.308 104.329 30.266 104.557 30.182C104.785 30.086 104.989 29.96 105.169 29.804L105.565 31.442C105.277 31.67 104.917 31.85 104.485 31.982C104.053 32.114 103.597 32.18 103.117 32.18C102.517 32.18 101.983 32.09 101.515 31.91C101.059 31.73 100.699 31.442 100.435 31.046C100.183 30.65 100.057 30.122 100.057 29.462V20.93L102.523 20.246ZM105.403 23V24.836H98.401V23H105.403ZM111.675 22.82C112.587 22.82 113.385 23.006 114.069 23.378C114.765 23.75 115.305 24.284 115.689 24.98C116.085 25.676 116.283 26.516 116.283 27.5C116.283 28.472 116.085 29.312 115.689 30.02C115.305 30.716 114.765 31.25 114.069 31.622C113.385 31.994 112.587 32.18 111.675 32.18C110.775 32.18 109.977 31.994 109.281 31.622C108.585 31.25 108.039 30.716 107.643 30.02C107.259 29.312 107.067 28.472 107.067 27.5C107.067 26.516 107.259 25.676 107.643 24.98C108.039 24.284 108.585 23.75 109.281 23.378C109.977 23.006 110.775 22.82 111.675 22.82ZM111.675 24.656C111.219 24.656 110.829 24.764 110.505 24.98C110.193 25.184 109.953 25.496 109.785 25.916C109.617 26.336 109.533 26.864 109.533 27.5C109.533 28.136 109.617 28.664 109.785 29.084C109.953 29.504 110.193 29.822 110.505 30.038C110.829 30.242 111.219 30.344 111.675 30.344C112.119 30.344 112.497 30.242 112.809 30.038C113.133 29.822 113.379 29.504 113.547 29.084C113.715 28.664 113.799 28.136 113.799 27.5C113.799 26.864 113.715 26.336 113.547 25.916C113.379 25.496 113.133 25.184 112.809 24.98C112.497 24.764 112.119 24.656 111.675 24.656Z" fill="#840032"/>
</svg>
