<svg width="25" height="24" viewBox="0 0 25 24" fill="none" xmlns="http://www.w3.org/2000/svg">
<g clip-path="url(#clip0_56_2027)">
<path fill-rule="evenodd" clip-rule="evenodd" d="M13.2071 15.707C13.0196 15.8945 12.7653 15.9998 12.5001 15.9998C12.2349 15.9998 11.9806 15.8945 11.7931 15.707L6.1361 10.05C6.04059 9.95776 5.96441 9.84742 5.912 9.72541C5.85959 9.60341 5.832 9.47219 5.83085 9.33941C5.82969 9.20663 5.855 9.07495 5.90528 8.95205C5.95556 8.82916 6.02981 8.7175 6.1237 8.62361C6.2176 8.52972 6.32925 8.45547 6.45214 8.40519C6.57504 8.3549 6.70672 8.3296 6.8395 8.33076C6.97228 8.33191 7.1035 8.3595 7.2255 8.41191C7.34751 8.46431 7.45785 8.5405 7.5501 8.63601L12.5001 13.586L17.4501 8.63601C17.6387 8.45385 17.8913 8.35305 18.1535 8.35533C18.4157 8.35761 18.6665 8.46278 18.8519 8.64819C19.0373 8.8336 19.1425 9.08441 19.1448 9.34661C19.1471 9.6088 19.0463 9.86141 18.8641 10.05L13.2071 15.707Z" fill="#151515"/>
</g>
<defs>
<clipPath id="clip0_56_2027">
<rect width="24" height="24" fill="white" transform="translate(0.5)"/>
</clipPath>
</defs>
</svg>
