<svg width="120" height="32" viewBox="0 0 120 32" fill="none" xmlns="http://www.w3.org/2000/svg">
<path d="M104.687 7.68805L102.126 23.7382C102.117 23.7972 102.12 23.8575 102.137 23.9149C102.153 23.9724 102.181 24.0256 102.22 24.0709C102.26 24.1162 102.308 24.1523 102.363 24.1769C102.417 24.2015 102.476 24.2139 102.536 24.2132H105.567C105.674 24.2141 105.778 24.1768 105.859 24.108C105.941 24.0392 105.995 23.9435 106.012 23.8382L108.573 7.78802C108.583 7.72908 108.579 7.66876 108.563 7.6113C108.547 7.55383 108.518 7.5006 108.479 7.45534C108.44 7.41009 108.392 7.3739 108.337 7.34931C108.283 7.32472 108.223 7.31233 108.163 7.31301H105.133C105.026 7.3109 104.921 7.34779 104.839 7.4168C104.757 7.48581 104.703 7.58223 104.687 7.68805ZM101.451 12.3719H98.5756C98.4688 12.3708 98.3652 12.408 98.2835 12.4767C98.2019 12.5454 98.1477 12.6411 98.1307 12.7463L98.0356 13.3372C98.0356 13.3372 95.8022 10.9214 91.8479 12.554C89.5794 13.4887 88.4905 15.4199 88.0271 16.8347C88.0271 16.8347 86.5564 21.1346 89.8826 23.5014C89.8826 23.5014 92.9669 25.7777 96.4398 23.3613L96.3798 23.7382C96.3659 23.8268 96.3815 23.9174 96.4242 23.9963C96.4668 24.0752 96.5342 24.138 96.616 24.175C96.6703 24.2005 96.7296 24.2132 96.7896 24.2132H99.6671C99.7743 24.2153 99.8787 24.1784 99.9607 24.1094C100.043 24.0404 100.097 23.944 100.113 23.8382L101.863 12.8469C101.873 12.788 101.869 12.7277 101.853 12.6703C101.836 12.6129 101.807 12.5599 101.768 12.5151C101.729 12.4695 101.68 12.4329 101.625 12.4081C101.571 12.3832 101.511 12.3713 101.451 12.3719ZM97.2199 18.4463C97.1077 19.2143 96.7184 19.915 96.1252 20.417C95.5294 20.9209 94.7711 21.1929 93.9901 21.183C93.6838 21.1866 93.3788 21.1423 93.0862 21.0518C91.8447 20.6571 91.1362 19.4766 91.3398 18.1967C91.4529 17.4291 91.8426 16.729 92.4358 16.2273C93.0311 15.7232 93.7888 15.4503 94.5696 15.4588C94.876 15.4556 95.181 15.5003 95.4735 15.5912C96.7226 15.9834 97.4279 17.1658 97.223 18.447H97.2199V18.4463ZM81.865 18.75C83.4243 18.75 84.9326 18.1974 86.1173 17.1926C87.2995 16.1912 88.0823 14.7999 88.3233 13.2716C88.8269 10.0924 86.319 7.31747 82.7637 7.31747H77.0362C76.9293 7.31645 76.8256 7.35375 76.744 7.42258C76.6623 7.49141 76.6082 7.5872 76.5913 7.69251L74.0299 23.7427C74.016 23.8312 74.0315 23.9219 74.0742 24.0008C74.1168 24.0797 74.1842 24.1424 74.266 24.1795C74.3209 24.2049 74.3796 24.2177 74.4396 24.2177H77.4722C77.5791 24.2187 77.6828 24.1814 77.7644 24.1126C77.8461 24.0437 77.9003 23.948 77.9171 23.8426L78.669 19.1295C78.6848 19.0236 78.7387 18.927 78.8207 18.8579C78.9027 18.7887 79.0072 18.7518 79.1145 18.7539L81.865 18.75ZM84.4016 13.127C84.2145 14.3025 83.2967 15.1678 81.5407 15.1678H79.2958L79.9775 10.8934H82.1822C83.9975 10.8966 84.5886 11.9567 84.4016 13.1302V13.127Z" fill="#0070E0"/>
<path d="M70.5747 12.6444L67.1062 18.4419L65.3458 12.6871C65.3183 12.5952 65.2615 12.5148 65.1841 12.458C65.1068 12.4011 65.013 12.3709 64.9169 12.3719H61.7867C61.7057 12.3708 61.627 12.3989 61.5652 12.4511C61.5034 12.5033 61.4626 12.576 61.4503 12.6559C61.4427 12.7088 61.4481 12.7628 61.4662 12.8131L64.6207 22.5068L61.7675 27.0747C61.7433 27.1123 61.727 27.1545 61.7197 27.1986C61.7124 27.2427 61.7141 27.2878 61.7249 27.3312C61.7356 27.3746 61.7551 27.4153 61.7822 27.4509C61.8093 27.4865 61.8434 27.5162 61.8824 27.5383C61.9346 27.5682 61.9939 27.5836 62.0541 27.5828H65.4256C65.5218 27.5832 65.6165 27.5587 65.7005 27.5119C65.7844 27.465 65.8549 27.3973 65.905 27.3154L74.716 12.8825C74.7479 12.8323 74.7655 12.7743 74.7667 12.7148C74.768 12.6553 74.7528 12.5966 74.723 12.5451C74.6933 12.4934 74.6502 12.4505 74.5982 12.4211C74.5462 12.3916 74.4873 12.3766 74.4275 12.3776H71.0573C70.9606 12.3767 70.8653 12.4008 70.7808 12.4476C70.6962 12.4943 70.6252 12.5621 70.5747 12.6444ZM60.0122 12.3719H57.1341C57.027 12.3708 56.9232 12.4082 56.8414 12.4772C56.7596 12.5461 56.7054 12.6421 56.6886 12.7475L56.5954 13.3378C56.5954 13.3378 54.3601 10.922 50.4058 12.5546C48.1379 13.4893 47.0484 15.4206 46.5869 16.8354C46.5869 16.8354 45.115 21.1353 48.4405 23.502C48.4405 23.502 51.5254 25.7783 54.9984 23.3619L54.9384 23.7389C54.9242 23.8274 54.9397 23.9182 54.9824 23.9971C55.0251 24.076 55.0926 24.1388 55.1745 24.1757C55.2288 24.2011 55.2881 24.2139 55.3481 24.2139H58.2256C58.3324 24.2146 58.436 24.1772 58.5176 24.1084C58.5992 24.0397 58.6534 23.944 58.6705 23.8388L60.4213 12.8475C60.4356 12.7588 60.4202 12.668 60.3775 12.5889C60.3348 12.5098 60.2672 12.447 60.1852 12.4101C60.1307 12.3851 60.0721 12.372 60.0122 12.3719ZM55.7803 18.4476C55.667 19.2146 55.2776 19.9142 54.6849 20.4157C54.0895 20.9195 53.3319 21.1922 52.5511 21.1836C52.2453 21.187 51.9407 21.1428 51.6486 21.0525C50.4077 20.6577 49.6998 19.4772 49.9035 18.1967C50.0169 17.4275 50.408 16.726 51.0033 16.2241C51.6008 15.72 52.3609 15.4484 53.1435 15.4594C53.4498 15.4562 53.7556 15.5008 54.0479 15.5918C55.2843 15.9841 55.9884 17.1658 55.7841 18.4476H55.7803ZM40.426 18.7507C41.9827 18.7499 43.4885 18.1972 44.6745 17.1913C45.8557 16.19 46.6375 14.7991 46.8779 13.2716C47.3822 10.093 44.8737 7.31811 41.3196 7.31811H35.5915C35.4847 7.31704 35.381 7.35423 35.2992 7.42292C35.2175 7.49161 35.1631 7.58726 35.146 7.69251L32.5928 23.7382C32.5786 23.8269 32.594 23.9178 32.6366 23.9968C32.6793 24.0759 32.7469 24.1387 32.829 24.1757C32.8833 24.2005 32.9426 24.2139 33.0026 24.2139H36.0333C36.1403 24.2149 36.2442 24.1775 36.326 24.1086C36.4077 24.0396 36.462 23.9437 36.4788 23.8382L37.2294 19.1251C37.2454 19.0193 37.2994 18.9228 37.3814 18.8538C37.4633 18.7848 37.5677 18.7479 37.675 18.75L40.426 18.7507ZM42.9626 13.127C42.7756 14.3025 41.8584 15.1678 40.1024 15.1678H37.8575L38.5379 10.8934H40.7426C42.5586 10.8966 43.149 11.9574 42.9626 13.1302V13.127Z" fill="#003087"/>
<path d="M20.8334 8.14268C20.9017 4.59862 17.9713 1.87976 13.9417 1.87976H5.60684C5.41261 1.87967 5.22473 1.94877 5.07704 2.07461C4.92936 2.20046 4.83157 2.37477 4.80131 2.56616L1.46173 23.3829C1.44679 23.4773 1.45252 23.5737 1.47853 23.6656C1.50453 23.7575 1.5502 23.8427 1.61238 23.9153C1.67456 23.988 1.75178 24.0463 1.83872 24.0863C1.92566 24.1263 2.02025 24.147 2.11599 24.147H7.05386L6.28216 28.9671C6.26722 29.0614 6.27295 29.1579 6.29895 29.2498C6.32496 29.3417 6.37062 29.4269 6.4328 29.4995C6.49498 29.5721 6.5722 29.6304 6.65914 29.6704C6.74608 29.7104 6.84068 29.7311 6.93641 29.7312H10.959C11.153 29.7312 11.326 29.6618 11.4741 29.5363C11.6209 29.4103 11.6451 29.2364 11.6758 29.0448L12.8566 22.1146C12.8866 21.9235 12.9843 21.6752 13.1317 21.5491C13.2792 21.4231 13.4081 21.3543 13.6028 21.3543H16.0641C20.0107 21.3543 23.3585 18.5558 23.9707 14.6641C24.4041 11.902 23.2168 9.38877 20.8334 8.14268Z" fill="#001C64"/>
<path d="M8.1223 16.4699L6.8923 24.2495L6.11996 29.1295C6.10511 29.2238 6.11093 29.3202 6.13702 29.4121C6.16311 29.504 6.20885 29.5891 6.27109 29.6617C6.33333 29.7343 6.41059 29.7925 6.49755 29.8324C6.58452 29.8723 6.67912 29.893 6.77485 29.8929H11.0323C11.2263 29.8928 11.414 29.8236 11.5614 29.6978C11.7089 29.572 11.8064 29.3977 11.8366 29.2065L12.9587 22.1139C12.9889 21.9227 13.0866 21.7484 13.2342 21.6226C13.3817 21.4968 13.5695 21.4276 13.7636 21.4275H16.2695C20.2161 21.4275 23.564 18.5559 24.1768 14.6641C24.6108 11.902 23.2168 9.38815 20.8334 8.14206C20.827 8.43623 20.8014 8.72976 20.7561 9.02075C20.144 12.9112 16.7949 15.7835 12.8495 15.7835H8.92719C8.73301 15.7837 8.54528 15.853 8.39774 15.979C8.2502 16.1049 8.15253 16.2786 8.1223 16.4699Z" fill="#0070E0"/>
<path d="M6.89165 24.2495H1.93846C1.84274 24.2495 1.74816 24.2288 1.66125 24.1888C1.57433 24.1488 1.49715 24.0905 1.43502 24.0178C1.37288 23.9452 1.32728 23.86 1.30136 23.7681C1.27543 23.6762 1.26979 23.5797 1.28484 23.4854L4.62441 2.35986C4.65466 2.16858 4.75236 1.99435 4.89991 1.86852C5.04746 1.74269 5.23519 1.67352 5.42931 1.67346H13.9416C17.9712 1.67346 20.9016 4.59862 20.8333 8.14205C19.8306 7.61738 18.6523 7.31748 17.3616 7.31748H10.2651C10.0708 7.31739 9.88294 7.38649 9.73526 7.51233C9.58757 7.63818 9.48979 7.81249 9.45952 8.00388L8.12292 16.4699L6.89101 24.2495H6.89165Z" fill="#003087"/>
</svg>
