<svg width="20" height="20" viewBox="0 0 20 20" fill="none" xmlns="http://www.w3.org/2000/svg">
<mask id="mask0_56_2019" style="mask-type:alpha" maskUnits="userSpaceOnUse" x="0" y="0" width="20" height="20">
<rect width="20" height="20" fill="#D9D9D9"/>
</mask>
<g mask="url(#mask0_56_2019)">
<path d="M6.66667 16.6667H1.66667C1.13889 16.6667 0.729167 16.493 0.4375 16.1458C0.145833 15.7986 0 15.4167 0 15C0 14.7222 0.0694444 14.4514 0.208333 14.1875C0.347222 13.9236 0.569444 13.7083 0.875 13.5417L3.79167 11.9583L0 10.8333L1.66667 7.49999L9.16667 8.33332L11.7083 6.43749L11.0417 5.83332H9.16667V4.16666H11.7083L17.6458 9.68749C17.9097 9.9236 18.0903 10.1562 18.1875 10.3854C18.2847 10.6146 18.3333 10.8333 18.3333 11.0417C18.3333 11.6389 18.1042 12.1701 17.6458 12.6354C17.1875 13.1007 16.4931 13.3333 15.5625 13.3333L17.3542 15H17.5C17.7361 15 17.934 14.9201 18.0938 14.7604C18.2535 14.6007 18.3333 14.4028 18.3333 14.1667H20C20 14.8611 19.7569 15.4514 19.2708 15.9375C18.7847 16.4236 18.1944 16.6667 17.5 16.6667H12.5V15H14.9375L13.2708 13.3333H10C10 14.25 9.67361 15.0347 9.02083 15.6875C8.36806 16.3403 7.58333 16.6667 6.66667 16.6667ZM1.66667 15H6.66667C7.125 15 7.51736 14.8368 7.84375 14.5104C8.17014 14.184 8.33333 13.7917 8.33333 13.3333L6.04167 12.6458L1.66667 15ZM8.58333 11.6667H15.4792C15.8542 11.6667 16.1458 11.6215 16.3542 11.5312C16.5625 11.441 16.6667 11.2778 16.6667 11.0417L12.9375 7.58332L9.64583 10.0625L2.625 9.29166L2.375 9.79166L8.58333 11.6667Z" fill="#840032"/>
</g>
</svg>
