<svg width="24" height="23" viewBox="0 0 24 23" fill="none" xmlns="http://www.w3.org/2000/svg">
<path d="M23.7393 4.81563L20.4174 8.24159C19.7463 16.2645 13.1858 22.5 5.33423 22.5C3.72104 22.5 2.39115 22.2365 1.38124 21.7163C0.566864 21.2958 0.23356 20.8455 0.150233 20.7171C0.0759335 20.6022 0.0277748 20.4715 0.00935591 20.3347C-0.00906297 20.1979 0.00273433 20.0585 0.0438658 19.9271C0.0849973 19.7956 0.154399 19.6755 0.246887 19.5756C0.339375 19.4757 0.452556 19.3986 0.577974 19.3502C0.606861 19.3387 3.27108 18.2834 4.96315 16.2748C4.02477 15.4792 3.20561 14.5448 2.53225 13.502C1.15459 11.3926 -0.387499 7.72827 0.0880163 2.25246C0.103089 2.07846 0.166056 1.91253 0.269504 1.7742C0.372951 1.63588 0.51257 1.53092 0.67192 1.47168C0.831269 1.41245 1.00371 1.40141 1.16894 1.43986C1.33417 1.47831 1.48531 1.56465 1.60455 1.68872C1.64344 1.72882 5.30201 5.48134 9.77496 6.69818V6.00039C9.77326 5.26867 9.91354 4.544 10.1875 3.86904C10.4615 3.19409 10.8637 2.58249 11.3704 2.07027C11.8625 1.56351 12.448 1.16353 13.0923 0.893924C13.7367 0.624319 14.427 0.490553 15.1223 0.500519C16.055 0.510007 16.9696 0.76824 17.7769 1.25011C18.5843 1.73198 19.257 2.4211 19.7297 3.25045H23.1105C23.2864 3.25031 23.4584 3.30399 23.6047 3.40471C23.7509 3.50542 23.865 3.64863 23.9323 3.81622C23.9996 3.9838 24.0172 4.16822 23.9829 4.34613C23.9485 4.52403 23.8638 4.68743 23.7393 4.81563Z" fill="#797979"/>
</svg>
