<svg width="25" height="25" viewBox="0 0 25 25" fill="none" xmlns="http://www.w3.org/2000/svg">
<path d="M12.5028 6.11395C8.95566 6.11395 6.09453 8.96515 6.09453 12.5C6.09453 16.0348 8.95566 18.886 12.5028 18.886C16.0499 18.886 18.911 16.0348 18.911 12.5C18.911 8.96515 16.0499 6.11395 12.5028 6.11395ZM12.5028 16.6517C10.2105 16.6517 8.33659 14.7898 8.33659 12.5C8.33659 10.2101 10.205 8.34822 12.5028 8.34822C14.8006 8.34822 16.669 10.2101 16.669 12.5C16.669 14.7898 14.795 16.6517 12.5028 16.6517ZM20.6679 5.85273C20.6679 6.68086 19.9986 7.34225 19.1732 7.34225C18.3422 7.34225 17.6785 6.6753 17.6785 5.85273C17.6785 5.03017 18.3477 4.36322 19.1732 4.36322C19.9986 4.36322 20.6679 5.03017 20.6679 5.85273ZM24.9122 7.36448C24.8173 5.3692 24.36 3.60179 22.8932 2.14563C21.432 0.689467 19.6584 0.233721 17.6562 0.133679C15.5926 0.0169637 9.40742 0.0169637 7.34384 0.133679C5.34718 0.228163 3.57362 0.683909 2.1068 2.14007C0.639989 3.59624 0.188232 5.36364 0.0878416 7.35892C-0.0292805 9.41533 -0.0292805 15.579 0.0878416 17.6354C0.182655 19.6307 0.639989 21.3981 2.1068 22.8543C3.57362 24.3104 5.34161 24.7662 7.34384 24.8662C9.40742 24.9829 15.5926 24.9829 17.6562 24.8662C19.6584 24.7717 21.432 24.316 22.8932 22.8543C24.3544 21.3981 24.8118 19.6307 24.9122 17.6354C25.0293 15.579 25.0293 9.42089 24.9122 7.36448ZM22.2462 19.8419C21.8112 20.9313 20.969 21.7705 19.8703 22.2096C18.225 22.8598 14.321 22.7098 12.5028 22.7098C10.6846 22.7098 6.77496 22.8543 5.13525 22.2096C4.04211 21.7761 3.19994 20.9368 2.75934 19.8419C2.1068 18.2023 2.25739 14.3118 2.25739 12.5C2.25739 10.6881 2.11238 6.79202 2.75934 5.158C3.19437 4.06866 4.03653 3.22942 5.13525 2.79034C6.78054 2.14007 10.6846 2.29014 12.5028 2.29014C14.321 2.29014 18.2306 2.14563 19.8703 2.79034C20.9635 3.22386 21.8056 4.0631 22.2462 5.158C22.8988 6.79757 22.7482 10.6881 22.7482 12.5C22.7482 14.3118 22.8988 18.2079 22.2462 19.8419Z" fill="#797979"/>
</svg>
